<svg width="1440" height="605" viewBox="0 0 1440 605" fill="none" xmlns="http://www.w3.org/2000/svg">
  <mask id="mask0_3_39" style="mask-type:alpha" maskUnits="userSpaceOnUse" x="0" y="0" width="1440" height="605">
  <rect width="1440" height="605" fill="#C4C4C4"/>
  </mask>
  <g mask="url(#mask0_3_39)">
  <path d="M59.8353 -110L1571.27 127.653C1571.27 127.653 1566.33 159.058 1529.07 396.027C1109.23 330.012 743.424 467.537 743.424 467.537C743.424 467.537 377.623 605.061 -42.2189 539.046C-91.2258 850.722 59.8353 -110 59.8353 -110Z" fill="#AE508E"/>
  <path d="M0 -2H1440C1440 -2 1440 27.407 1440 249.296C1040 249.296 720 427.52 720 427.52C720 427.52 400 605.744 0 605.744C1.66893e-05 897.586 0 -2 0 -2Z" fill="#FFC8CB"/>
  </g>
</svg>
