<svg width="1440" height="933" viewBox="0 0 1440 933" fill="none" xmlns="http://www.w3.org/2000/svg" xmlns:xlink="http://www.w3.org/1999/xlink">
<mask id="mask0_21_17" style="mask-type:alpha" maskUnits="userSpaceOnUse" x="0" y="0" width="1440" height="933">
<rect width="1440" height="933" fill="#C4C4C4"/>
</mask>
<g mask="url(#mask0_21_17)">
<path d="M1281.5 536.622C1085.5 419.022 992.833 521.956 971 588.122C1086.5 465.122 1268 568.122 1331 593.122C1459.5 634.622 1541.5 569.622 1585 551.622C1632 530.622 1692.5 554.122 1706.5 559.622C1681.55 541.659 1667.06 536.643 1654.08 532.15L1654 532.122C1617 527.622 1593 536.622 1563.5 545.122C1459.5 592.622 1453.5 584.122 1430.5 585.122C1392.5 586.122 1348 567.122 1281.5 536.622Z" fill="#D49BBB" fill-opacity="0.25"/>
<path d="M1281.5 633.622C1085.5 516.022 992.833 618.956 971 685.122C1086.5 562.122 1268 665.122 1331 690.122C1459.5 731.622 1541.5 666.622 1585 648.622C1632 627.622 1692.5 651.122 1706.5 656.622C1681.55 638.659 1667.06 633.643 1654.08 629.15L1654 629.122C1617 624.622 1593 633.622 1563.5 642.122C1459.5 689.622 1453.5 681.122 1430.5 682.122C1392.5 683.122 1348 664.122 1281.5 633.622Z" fill="#D49BBB" fill-opacity="0.25"/>
<path d="M274.5 602.622C78.5 485.022 -14.1667 587.956 -36 654.122C79.5 531.122 261 634.122 324 659.122C452.5 700.622 534.5 635.622 578 617.622C625 596.622 685.5 620.122 699.5 625.622C674.551 607.659 660.059 602.643 647.08 598.15L647 598.122C610 593.622 586 602.622 556.5 611.122C452.5 658.622 446.5 650.122 423.5 651.122C385.5 652.122 341 633.122 274.5 602.622Z" fill="#D49BBB" fill-opacity="0.25"/>
<path d="M271.5 509.622C75.5 392.022 -17.1667 494.956 -39 561.122C76.5 438.122 258 541.122 321 566.122C449.5 607.622 531.5 542.622 575 524.622C622 503.622 682.5 527.122 696.5 532.622C671.551 514.659 657.059 509.643 644.08 505.15L644 505.122C607 500.622 583 509.622 553.5 518.122C449.5 565.622 443.5 557.122 420.5 558.122C382.5 559.122 338 540.122 271.5 509.622Z" fill="#D49BBB" fill-opacity="0.25"/>
<path d="M59 697H231V878H59V697Z" fill="url(#pattern0)" fill-opacity="0.5"/>
<path d="M1086 -16H1209V111H1086V-16Z" fill="url(#pattern1)" fill-opacity="0.24"/>
</g>
<defs>
<pattern id="pattern0" patternContentUnits="objectBoundingBox" width="1" height="1">
<use xlink:href="#image0_21_17" transform="translate(-4.42941 -0.418868) scale(0.0029321 0.00278826)"/>
</pattern>
<pattern id="pattern1" patternContentUnits="objectBoundingBox" width="1" height="1">
<use xlink:href="#image0_21_17" transform="translate(-9.56269 -3.22047) scale(0.00600723 0.00581802)"/>
</pattern>
</defs>
</svg>
