<svg xmlns="http://www.w3.org/2000/svg" version="1.1" xmlns:xlink="http://www.w3.org/1999/xlink" xmlns:svgjs="http://svgjs.com/svgjs" width="658" height="434"><svg width="658" height="434" viewBox="0 0 658 434" fill="none" xmlns="http://www.w3.org/2000/svg">
<path d="M323.194 312.733L325.826 199.138C325.826 199.138 314.666 137.434 297.717 154.391C289.269 162.818 280.795 182.443 325.932 199.269H359.777C359.777 199.269 382.359 188.043 376.727 165.617C371.068 159.992 359.777 154.391 359.777 199.269C359.777 244.147 368.252 311.4 368.252 311.4" stroke="#A73DA9" stroke-width="20" stroke-miterlimit="10"></path>
<path d="M297.717 370.225C297.717 370.225 173.624 482.407 10 370.225C100.274 319.746 190.547 280.469 297.717 336.572C230.025 330.946 139.804 325.347 100.326 157.06C184.888 179.512 317.483 222.977 323.194 312.733C289.348 267.855 218.813 145.834 342.933 50.4778C387.99 95.356 469.816 154.391 368.251 311.399C385.175 249.695 399.281 202.016 563.01 157.138C540.429 235.643 529.138 331.025 393.754 331.025C450.155 308.599 574.275 291.773 647.625 364.703C630.703 387.129 506.583 476.886 382.464 370.304C377.199 360.778 315.641 343.847 320.351 359.077C320.693 366.143 374.726 376.191 376.753 370.304C377.674 367.686 368.515 361.537 359.829 359.077C340.564 353.634 319.588 365.332 320.351 370.304C321.535 377.97 374.252 370.304 376.753 381.529C378.042 387.287 365.698 396.053 354.197 398.355C337.011 401.783 319.535 391.186 320.351 387.129C321.693 380.404 374.883 382.969 376.753 392.729C377.384 396 372.699 401.967 371.121 403.955C369.462 406.027 367.572 407.906 365.489 409.555C355.697 417.039 338.353 417.772 326.01 409.555C322.825 407.435 319.983 405.577 320.377 403.955C321.957 397.387 375.647 400.632 376.779 409.555C377.463 414.632 360.987 420.362 359.855 420.781C344.065 426.328 326.273 423.607 326.01 420.781C325.641 416.751 369.067 415.547 374.015 423.581C375.147 425.386 366.12 419.342 365.515 420.781" stroke="#A73DA9" stroke-width="20" stroke-linecap="round" stroke-linejoin="round"></path>
<path d="M246.87 157.007C244.142 158.016 241.308 158.709 238.421 159.075C232.804 159.808 227.115 159.808 221.499 159.075C218.629 158.707 215.813 158.013 213.103 157.007C215.835 155.993 218.68 155.308 221.578 154.967C227.191 154.2 232.885 154.2 238.5 154.967C241.359 155.33 244.167 156.015 246.87 157.007Z" fill="#A73DA9"></path>
<path d="M252.607 95.3561C249.948 95.3911 247.295 95.0922 244.711 94.4664C242.237 93.8857 239.809 93.1248 237.447 92.1897C235.115 91.2866 232.854 90.2108 230.683 88.9711C228.396 87.6599 226.282 86.0687 224.393 84.2346C227.053 84.208 229.706 84.5158 232.288 85.1505C234.767 85.7191 237.195 86.4803 239.552 87.4271C241.91 88.3704 244.197 89.481 246.395 90.7505C248.64 92.0389 250.724 93.5847 252.607 95.3561Z" fill="#A73DA9"></path>
<path d="M286.348 50.478C283.43 49.4469 280.631 48.1044 278.004 46.4744C275.424 44.8842 272.945 43.1364 270.582 41.2407C268.237 39.3578 266.004 37.3393 263.897 35.196C261.716 33.0051 259.784 30.5831 258.134 27.9735C261.049 29.0102 263.846 30.3523 266.477 31.9773C269.049 33.5674 271.519 35.3154 273.873 37.2108C276.238 39.0886 278.481 41.1164 280.584 43.2819C282.748 45.4769 284.681 47.8885 286.348 50.478Z" fill="#A73DA9"></path>
<path d="M342.854 33.652C341.86 30.9358 341.173 28.1187 340.801 25.2521C340.426 22.4588 340.232 19.6442 340.222 16.826C340.218 14.0161 340.412 11.2093 340.801 8.4261C341.157 5.54818 341.845 2.72075 342.854 0C343.87 2.71987 344.568 5.54726 344.933 8.4261C345.327 11.2085 345.512 14.0163 345.486 16.826C345.485 19.6436 345.3 22.4581 344.933 25.2521C344.566 28.1218 343.867 30.9402 342.854 33.652Z" fill="#A73DA9"></path>
<path d="M393.649 50.4779C394.749 47.9622 396.154 45.5896 397.834 43.4126C399.438 41.2893 401.197 39.2864 403.097 37.4201C404.969 35.5245 406.983 33.7748 409.124 32.1865C411.313 30.5172 413.701 29.1199 416.231 28.0258C415.13 30.5415 413.724 32.9141 412.045 35.0911C410.448 37.2198 408.688 39.2232 406.782 41.0836C404.902 42.9794 402.878 44.7291 400.729 46.3172C398.545 47.9822 396.168 49.3791 393.649 50.4779Z" fill="#A73DA9"></path>
<path d="M427.495 95.3563C429.543 93.932 431.773 92.7879 434.127 91.9544C436.386 91.1128 438.71 90.4564 441.076 89.9918C443.436 89.5192 445.829 89.2305 448.234 89.1283C450.743 89.0173 453.255 89.2285 455.709 89.7563C453.652 91.1809 451.413 92.325 449.05 93.1582C446.795 94.0066 444.47 94.6631 442.102 95.1207C439.743 95.5974 437.349 95.8776 434.944 95.958C432.445 96.0911 429.94 95.8887 427.495 95.3563Z" fill="#A73DA9"></path>
<path d="M433.127 199.422C435.865 198.423 438.709 197.738 441.602 197.381C447.217 196.615 452.911 196.615 458.525 197.381C461.412 197.726 464.248 198.411 466.973 199.422C464.246 200.43 461.411 201.124 458.525 201.49C452.908 202.223 447.219 202.223 441.602 201.49C438.707 201.124 435.864 200.43 433.127 199.422Z" fill="#A73DA9"></path>
</svg><style>@media (prefers-color-scheme: light) { :root { filter: contrast(1) brightness(1); } }
</style></svg>